<svg version="1.1" viewBox="0 0 100 100" xmlns="http://www.w3.org/2000/svg" standalone="yes">
	<defs>
		<g id="arc">
			<mask id="arcMask">
				<rect x="0" y="0" width="48" height="100" fill="white" transform="rotate(30 50 50)" />
				<rect x="0" y="0" width="52" height="100" fill="black" />
			</mask>
			<circle cx="50" cy="50" r="46" style="fill:white" mask="url(#arcMask)" transform="translate(-50)" />
		</g>
	</defs>
	<circle cx="50" cy="50" r="50" fill="black" fill-opacity="0.75" />
	<use xlink:href="#arc" x="50" y="0" />
	<use xlink:href="#arc" x="50" y="0" transform="rotate(30 50 50)" />
	<use xlink:href="#arc" x="50" y="0" transform="rotate(60 50 50)" />
	<use xlink:href="#arc" x="50" y="0" transform="rotate(90 50 50)" />
	<use xlink:href="#arc" x="50" y="0" transform="rotate(120 50 50)" />
	<use xlink:href="#arc" x="50" y="0" transform="rotate(150 50 50)" />
	<use xlink:href="#arc" x="50" y="0" transform="rotate(180 50 50)" />
	<use xlink:href="#arc" x="50" y="0" transform="rotate(210 50 50)" />
	<use xlink:href="#arc" x="50" y="0" transform="rotate(240 50 50)" />
	<use xlink:href="#arc" x="50" y="0" transform="rotate(270 50 50)" />
	<use xlink:href="#arc" x="50" y="0" transform="rotate(300 50 50)" />
	<use xlink:href="#arc" x="50" y="0" transform="rotate(330 50 50)" />
</svg>
